<?xml version="1.0" standalone="no"?>
<!DOCTYPE svg PUBLIC "-//W3C//DTD SVG 20010904//EN"
 "http://www.w3.org/TR/2001/REC-SVG-20010904/DTD/svg10.dtd">
<svg version="1.0" xmlns="http://www.w3.org/2000/svg"
 width="136.000000pt" height="16.000000pt" viewBox="0 0 136.000000 16.000000"
 preserveAspectRatio="xMidYMid meet">

<g transform="translate(0.000000,16.000000) scale(0.100000,-0.100000)"
fill="#000000" stroke="none">
<path d="M0 145 c0 -8 9 -15 20 -15 18 0 20 -7 20 -55 0 -48 2 -55 20 -55 18
0 20 7 20 55 0 52 1 55 25 55 16 0 25 6 25 15 0 12 -14 15 -65 15 -51 0 -65
-3 -65 -15z"/>
<path d="M590 90 c0 -56 3 -70 15 -70 12 0 15 14 15 70 0 56 -3 70 -15 70 -12
0 -15 -14 -15 -70z"/>
<path d="M650 145 c0 -8 9 -15 20 -15 18 0 20 -7 20 -55 0 -48 2 -55 20 -55
18 0 20 7 20 55 0 48 2 55 20 55 11 0 20 7 20 15 0 12 -13 15 -60 15 -47 0
-60 -3 -60 -15z"/>
<path d="M1130 90 c0 -63 2 -70 20 -70 12 0 20 7 20 18 1 16 1 16 14 0 13 -18
46 -25 46 -10 0 4 -7 15 -15 26 -12 16 -12 22 2 42 14 23 14 24 -5 24 -12 0
-26 -8 -31 -17 -8 -15 -10 -11 -11 20 0 30 -4 37 -20 37 -18 0 -20 -7 -20 -70z"/>
<path d="M140 69 c0 -37 4 -49 15 -49 10 0 15 10 15 31 0 22 5 32 20 36 34 9
23 31 -15 31 l-35 0 0 -49z"/>
<path d="M226 104 c-5 -14 -1 -16 24 -11 16 4 30 3 30 -2 0 -5 -13 -11 -30
-14 -23 -5 -30 -12 -30 -31 0 -29 13 -34 63 -28 35 4 37 6 37 41 0 20 -5 42
-12 49 -18 18 -75 15 -82 -4z m54 -54 c0 -5 -7 -10 -16 -10 -8 0 -12 5 -9 10
3 6 10 10 16 10 5 0 9 -4 9 -10z"/>
<path d="M348 71 c14 -44 19 -51 42 -51 23 0 28 7 42 50 16 48 16 50 -3 50
-11 0 -22 -8 -25 -17 -15 -45 -17 -47 -23 -18 -4 21 -13 31 -28 33 -21 3 -21
3 -5 -47z"/>
<path d="M472 108 c-19 -19 -14 -63 8 -83 16 -15 26 -17 47 -9 40 14 43 38 4
29 -20 -4 -31 -3 -31 4 0 6 16 11 35 11 39 0 42 6 19 38 -17 24 -62 30 -82 10z
m53 -18 c3 -5 -1 -10 -9 -10 -9 0 -16 5 -16 10 0 6 4 10 9 10 6 0 13 -4 16
-10z"/>
<path d="M780 70 c0 -43 3 -50 20 -50 16 0 20 7 20 35 0 24 5 35 15 35 8 0 15
6 15 13 0 9 -13 14 -35 15 l-35 1 0 -49z"/>
<path d="M870 83 c0 -53 9 -61 63 -61 l47 0 0 49 c0 42 -3 49 -19 49 -16 0
-20 -8 -23 -37 -2 -21 -7 -38 -13 -38 -5 0 -11 17 -13 38 -3 29 -7 37 -23 37
-15 0 -19 -7 -19 -37z"/>
<path d="M1010 99 c-7 -11 -9 -32 -6 -45 11 -43 76 -52 97 -13 8 16 6 19 -10
19 -11 0 -21 -5 -23 -12 -6 -17 -28 0 -28 22 0 22 22 39 28 22 2 -7 12 -12 23
-12 17 0 18 3 9 20 -15 28 -75 28 -90 -1z"/>
<path d="M1260 106 c-15 -20 2 -46 31 -46 10 0 21 -5 24 -11 5 -7 -5 -8 -29
-4 -42 8 -46 2 -12 -20 33 -22 79 -5 74 28 -2 16 -11 23 -30 25 -16 2 -28 8
-28 13 0 7 12 8 31 4 24 -6 30 -4 27 6 -7 20 -72 23 -88 5z"/>
</g>
</svg>
